<?xml version="1.0" encoding="UTF-8"?>
<svg xmlns="http://www.w3.org/2000/svg" xmlns:xlink="http://www.w3.org/1999/xlink" viewBox="0 0 50 50" width="50px" height="50px">
<g id="surface59512780">
<path style=" stroke:none;fill-rule:nonzero;fill:rgb(0%,0%,0%);fill-opacity:1;" d="M 47.066406 2.035156 L 47.910156 2.105469 L 47.984375 2.945312 C 47.984375 2.945312 48.988281 14.867188 40.046875 23.8125 C 37.5625 26.296875 35.726562 27.449219 33 29.503906 L 33 30.269531 C 32.265625 30.796875 31.597656 31.40625 31 32.085938 L 31 28.503906 L 31.390625 28.203125 C 34.445312 25.871094 36.148438 24.878906 38.628906 22.394531 C 45.878906 15.148438 46.054688 6.210938 45.996094 4.023438 C 45.675781 4.011719 45.644531 3.992188 45.050781 4.015625 C 41.5625 4.148438 33.816406 5.1875 27.621094 11.386719 C 25.128906 13.875 24.121094 15.539062 21.796875 18.605469 L 21.496094 19 L 10.574219 19 L 4.25 29.839844 L 5.269531 30.855469 L 14.269531 27.855469 L 22.144531 35.730469 L 19.144531 44.730469 L 20.160156 45.75 L 28.054688 41.144531 C 28.121094 41.859375 28.253906 42.558594 28.445312 43.230469 L 19.839844 48.25 L 16.855469 45.269531 L 19.855469 36.269531 L 13.730469 30.144531 L 4.730469 33.144531 L 1.75 30.160156 L 9.425781 17 L 20.5 17 C 22.554688 14.261719 23.722656 12.453125 26.203125 9.96875 C 32.914062 3.261719 41.292969 2.152344 45.066406 2.015625 C 45.695312 1.996094 46.195312 2 46.539062 2.007812 C 46.882812 2.019531 47.066406 2.035156 47.066406 2.035156 Z M 40.828125 9.171875 C 42.382812 10.722656 42.382812 13.273438 40.828125 14.828125 C 39.277344 16.382812 36.726562 16.382812 35.171875 14.828125 C 33.617188 13.273438 33.621094 10.726562 35.171875 9.171875 C 35.949219 8.394531 36.972656 8.007812 38 8.007812 C 39.027344 8.003906 40.054688 8.394531 40.828125 9.171875 Z M 36.585938 10.582031 L 36.585938 10.585938 C 35.796875 11.375 35.796875 12.625 36.585938 13.414062 C 37.375 14.203125 38.625 14.203125 39.414062 13.414062 C 40.203125 12.625 40.203125 11.375 39.414062 10.585938 C 39.019531 10.191406 38.511719 9.996094 38 9.992188 C 37.488281 9.992188 36.980469 10.191406 36.585938 10.582031 Z M 36.585938 10.582031 "/>
<path style=" stroke:none;fill-rule:nonzero;fill:rgb(0.784314%,0%,0%);fill-opacity:1;" d="M 45.898438 40 C 45.898438 40.601562 45.5 41 44.898438 41 L 41 41 L 41 44.898438 C 41 45.5 40.601562 45.898438 40 45.898438 C 39.398438 45.898438 39 45.5 39 44.898438 L 39 41 L 35.101562 41 C 34.5 41 34.101562 40.601562 34.101562 40 C 34.101562 39.398438 34.5 39 35.101562 39 L 39 39 L 39 35.101562 C 39 34.5 39.398438 34.101562 40 34.101562 C 40.601562 34.101562 41 34.5 41 35.101562 L 41 39 L 44.898438 39 C 45.5 39 45.898438 39.398438 45.898438 40 Z M 50 40 C 50 45.5 45.5 50 40 50 C 34.5 50 30 45.5 30 40 C 30 34.5 34.5 30 40 30 C 45.5 30 50 34.5 50 40 Z M 48 40 C 48 35.601562 44.398438 32 40 32 C 35.601562 32 32 35.601562 32 40 C 32 44.398438 35.601562 48 40 48 C 44.398438 48 48 44.398438 48 40 Z M 48 40 "/>
</g>
</svg>
